 <svg width="300" height="300" xmlns="http://www.w3.org/2000/svg" xmlns:svg="http://www.w3.org/2000/svg">
                    <g>
                        <title>Layer 1</title>
                        <path fill="#bfbfbf" stroke="#000000" d="m169.5,106l62.5,43l-15,41l-35,-9l-12.5,-75z"
                            id="svg_4" />
                        <path fill="#e2daea" stroke="#000000"
                            d="m138.5,179l73.5,2l34,-30l-16,-32l-29,-25l-37,-2l-41,6l-21,36l-35,14l-25,28l96.5,3z"
                            id="svg_2" />
                        <path fill="#bfbfbf" stroke="#000000"
                            d="m164.5,110l-17.5,34l42,26c0,0 1.5,-17 1.5,-17c0,0 -26,-43 -26,-43z" id="svg_3" />
                        <path fill="#bfbfbf" stroke="#000000" d="m41.5,178l35.5,12l111,-5l-104,-13l-42.5,6z"
                            id="svg_5" />
                        <path fill="#bfbfbf" stroke="#000000"
                            d="m106.5,126c-13,30 -48,36 -13,30c35,-6 59,21 35,-6l-22,-24z" id="svg_6" />
                        <path fill="#ffffff" stroke="#000000" d="m106.5,126l28.5,-11l4,46l-32.5,-35z" id="svg_7" />
                        <path fill="#ffffff"
                            d="m180.33661,108.56342c0,0 3.84322,41.87316 3.84322,41.87316c0,0 25.6215,-4.18732 24.98096,-4.18732c-0.64054,0 -28.82418,-37.68585 -28.82418,-37.68585l0,0.00001z"
                            id="svg_8" transform="rotate(-23.99653434753418 194.7546081542968,129.49999999999997) "
                            stroke="#000000" />
                        <path fill="#ededed"
                            d="m194.55462,135.8317c0,0 4.34394,45.17254 4.34394,45.17254c0,0 28.95956,-4.51726 28.23558,-4.51726c-0.72399,0 -32.57952,-40.65529 -32.57952,-40.65529l0,0.00001z"
                            transform="rotate(85.57947540283203 210.851058959961,158.41796874999997) " id="svg_9"
                            stroke="#000000" />
                    </g>
                </svg>