  <svg width="300" height="300" xmlns="http://www.w3.org/2000/svg" xmlns:svg="http://www.w3.org/2000/svg">
                    <g>
                        <title>Layer 1</title>
                        <path stroke="#000000" fill="#ededed"
                            d="m32.31583,110.67478c0,0 8.66602,86.43575 8.66602,86.43575c0,0 57.77337,-8.64359 56.32905,-8.64359c-1.44434,0 -64.99507,-77.79218 -64.99507,-77.79218l0,0.00002z"
                            transform="rotate(169.4265594482422 64.82667541503908,153.89260864257812) " id="svg_1" />
                        <path stroke="#000000" fill="#e2daea"
                            d="m98.32565,165.93569l41.62471,1.64481l19.25497,-24.67208l-9.06116,-26.31688l-16.42335,-20.56006l-20.95394,-1.64481l-23.21923,4.93442l-11.89278,29.60649l-19.8213,11.51364l-14.15806,23.02727l54.65013,2.46721l0.00001,0z"
                            id="svg_2" transform="rotate(-39.407142639160156 101.440414428711,130.98358154296878) " />
                        <path stroke="#000000" fill="#bfbfbf"
                            d="m30.50001,176l42.04266,18l131.45733,-7.5l-123.16723,-19.5l-50.33276,9z" id="svg_5" />
                        <path fill="#e2daea" stroke="#000000" stroke-width="null" stroke-dasharray="null"
                            stroke-linejoin="null" stroke-linecap="null"
                            d="m220.5,155l-15.5,30l-71,-7l-10,-62c0,0 55.5,6 55.5,6c0,0 41,33 41,33z" id="svg_13" />
                        <path transform="rotate(-24.183612823486328 188.75,124.99999999999999) " fill="#bfbfbf"
                            d="m167.5,96l42.5,29.69048l-10.2,28.30952l-23.8,-6.21429l-8.5,-51.78571z" id="svg_4"
                            stroke="#000000" />
                        <path stroke="#000000"
                            transform="rotate(90.9007797241211 64.00489807128905,107.18562316894531) " fill="#bfbfbf"
                            d="m62.9677,72.19579c-7.55527,57.93695 -27.89637,69.52434 -7.55527,57.93695c20.3411,-11.58739 34.28929,40.55586 20.3411,-11.58739l-12.78584,-46.34956z"
                            id="svg_6" />
                        <path stroke="#000000" transform="rotate(-24.713176727294922 158.24999999999997,139) "
                            fill="#ffffff"
                            d="m137.83988,124.8524l35.7962,-12.96864l5.02403,54.23248l-40.82023,-41.26384z"
                            id="svg_7" />
                        <path fill="#e2daea"
                            d="m182.9776,95.17138c0,0 5.53826,66.65725 5.53826,66.65725c0,0 36.92178,-6.66573 35.99873,-6.66573c-0.92305,0 -41.53699,-59.99154 -41.53699,-59.99154l0,0.00002z"
                            id="svg_8" transform="rotate(-129.9215850830078 203.75460815429688,128.5) " stroke="#000000"
                            stroke-width="null" stroke-dasharray="null" stroke-linecap="null" stroke-linejoin="null" />
                        <path stroke="#000000" fill="#ededed"
                            d="m174.43673,126.14892c0,0 4.90848,49.53811 4.90848,49.53811c0,0 32.72315,-4.95382 31.90508,-4.95382c-0.81808,0 -36.81356,-44.5843 -36.81356,-44.5843l0,0.00001z"
                            transform="rotate(-79.40202331542969 192.8510589599609,150.91796874999997) " id="svg_9" />
                        <path transform="rotate(170.24757385253906 82.5,99) " stroke="#000000" fill="#ffffff"
                            stroke-width="null" stroke-dasharray="null" stroke-linejoin="null" stroke-linecap="null"
                            d="m107.61364,103.36364l17.38636,13.63636l-69.54545,-6.54545l-15.45455,-24l25.75758,-5.45455l32.19697,4.90909l-9.01515,7.63636l18.67424,9.81818z"
                            id="svg_10" />
                        <path stroke="#000000"
                            transform="rotate(4.999780178070068 120.82048034667933,142.35067749023438) " fill="#ededed"
                            stroke-width="null" stroke-dasharray="null" stroke-linejoin="null" stroke-linecap="null"
                            d="m125.03815,107.70939l13.85806,69.28259l-36.15147,-6.75928l22.29341,-62.52331z"
                            id="svg_11" />
                        <path stroke="#000000"
                            transform="rotate(-168.50343322753906 201.18081665039065,100.48594665527344) "
                            fill="#ffffff" stroke-width="null" stroke-dasharray="null" stroke-linejoin="null"
                            stroke-linecap="null"
                            d="m160.50184,90.52607l20.33949,27.38965l37.42467,-6.22492c0,0 23.59381,-28.63464 23.59381,-28.63464c0,0 -81.35797,7.4699 -81.35797,7.4699z"
                            id="svg_12" />
                        <path stroke="#000000" id="svg_3" fill="#ededed"
                            d="m42.66459,147.6201c0,0 2.62229,49.46854 2.62229,49.46854c0,0 17.4819,-4.94686 17.04486,-4.94686c-0.43705,0 -19.66715,-44.52169 -19.66715,-44.52169l0,0.00002z"
                            transform="rotate(103.91707611083984 52.50219345092774,172.35435485839844) " />
                    </g>
                </svg>