<svg width="300" height="300" xmlns="http://www.w3.org/2000/svg" xmlns:svg="http://www.w3.org/2000/svg">
                    <g>
                        <title>Layer 1</title>
                        <path id="svg_13" d="m220.5,155l-15.5,30l-71,-7l-10,-62c0,0 55.5,6 55.5,6c0,0 41,33 41,33z"
                            stroke-linecap="null" stroke-linejoin="null" stroke-dasharray="null" stroke-width="null"
                            stroke="#000000" fill="#e2daea" />
                        <path stroke="#000000" id="svg_3"
                            d="m121.5,107l-17.5,44.76667l42,34.23333c0,0 1.5,-22.38333 1.5,-22.38333c0,0 -26,-56.61667 -26,-56.61667z"
                            fill="#ffffff" />
                        <path stroke="#000000" id="svg_4"
                            d="m157.5,128l42.5,29.69048l-10.2,28.30952l-23.8,-6.21429l-8.5,-51.78571z" fill="#bfbfbf" />
                        <path transform="rotate(-114.84825134277344 81.00000000000003,154.50000000000003) "
                            stroke="#000000" id="svg_2"
                            d="m78.35784,197l35.30882,2l16.33333,-30l-7.68627,-32l-13.93137,-25l-17.77451,-2l-19.69608,6l-10.08824,36l-16.81373,14l-12.0098,28l46.35784,3z"
                            fill="#e2daea" />
                        <path id="svg_5" d="m41.5,178l35.5,12l111,-5l-104,-13l-42.5,6z" stroke="#000000"
                            fill="#bfbfbf" />
                        <path id="svg_6" d="m74.5,128c-13,30 -48,36 -13,30c35,-6 59,21 35,-6l-22,-24z" stroke="#000000"
                            fill="#bfbfbf" />
                        <path id="svg_7" d="m81.5,137l28.5,-11l4,46l-32.5,-35z" stroke="#000000" fill="#ffffff" />
                        <path stroke-linejoin="null" stroke-linecap="null" stroke-dasharray="null" stroke-width="null"
                            stroke="#000000" transform="rotate(-41.79774856567383 193.75460815429693,138.5) " id="svg_8"
                            d="m172.9776,105.17138c0,0 5.53826,66.65725 5.53826,66.65725c0,0 36.92178,-6.66573 35.99873,-6.66573c-0.92305,0 -41.53699,-59.99154 -41.53699,-59.99154l0,0.00002z"
                            fill="#e2daea" />
                        <path stroke="#000000" id="svg_9"
                            transform="rotate(85.57947540283203 208.85105895996094,162.41796875) "
                            d="m192.55462,139.8317c0,0 4.34394,45.17254 4.34394,45.17254c0,0 28.95956,-4.51726 28.23558,-4.51726c-0.72399,0 -32.57952,-40.65529 -32.57952,-40.65529l0,0.00001z"
                            fill="#ededed" />
                        <path id="svg_1" stroke="#000000"
                            transform="rotate(-47.23887634277344 84.58866882324222,124.67401123046875) "
                            d="m68.29223,102.08774c0,0 4.34394,45.17254 4.34394,45.17254c0,0 28.95956,-4.51726 28.23558,-4.51726c-0.72399,0 -32.57952,-40.65529 -32.57952,-40.65529l0,0.00001z"
                            fill="#ededed" />
                        <path id="svg_10" d="m214.5,118l13.5,25l-54,-12l-12,-44l20,-10l25,9l-7,14l14.5,18z"
                            stroke-linecap="null" stroke-linejoin="null" stroke-dasharray="null" stroke-width="null"
                            stroke="#000000" fill="#ffffff" />
                        <path id="svg_11" d="m161.5,88l11.5,41l-30,-4l18.5,-37z" stroke-linecap="null"
                            stroke-linejoin="null" stroke-dasharray="null" stroke-width="null" stroke="#000000"
                            fill="#ededed" />
                        <path id="svg_12" d="m106.5,106l12.5,22l23,-5c0,0 14.5,-23 14.5,-23c0,0 -50,6 -50,6z"
                            stroke-linecap="null" stroke-linejoin="null" stroke-dasharray="null" stroke-width="null"
                            stroke="#000000" fill="#ffffff" />
                    </g>
                </svg>